# xmcd
#
# Track frame offsets: 
#        150
#        11601
#        23235
#        35270
#        51416
#        62395
#        77721
#        92122
#        101871
#        114263
#        125256
#        139397
#
# Disc length: 2021 seconds
#
# Revision: 1
# Processed by: cddbd v1.5.2PL0 Copyright (c) Steve Scherf et al.
# Submitted via: ExactAudioCopy v0.99pb4
#
DISCID=9907e30c
DTITLE=Guthrie, Woody - My Dusty Road (3 of 4) - Woody The Agitator
DYEAR=2009
DGENRE=Folk
TTITLE0=I'm Gonna Join That One Big Union (You Gotta Go Down And Join 
TTITLE0=the Union)
TTITLE1=Hangknot, Slipknot
TTITLE2=Gonna Roll the Union On
TTITLE3=The Ludlow Massacre
TTITLE4=Sally Don't You Grieve
TTITLE5=Harriet Tubman's Ballad (Part 1)
TTITLE6=Harriet Tubman's Ballad (Part 2)
TTITLE7=Tear the Fascists Down (previously unreleased)
TTITLE8=When The Yanks Go Marching In
TTITLE9=You Can Hear My Whistle Blow (previously unreleased)
TTITLE10=Union Burying Ground
TTITLE11=You Gotta Go Down And Join the Union
EXTD=
EXTT0=
EXTT1=
EXTT2=
EXTT3=
EXTT4=
EXTT5=
EXTT6=
EXTT7=
EXTT8=
EXTT9=
EXTT10=
EXTT11=
PLAYORDER=
